<svg xmlns="http://www.w3.org/2000/svg" width="48" height="48" viewBox="0 0 48 48" fill="none" stroke="black" stroke-width="2" stroke-linecap="round" stroke-linejoin="round">
  <path d="M4 44l3.3-11.6C5.2 29.6 4 25.9 4 22 4 11.5 13.5 2 24 2s20 9.5 20 20-9.5 20-20 20c-3.7 0-7.1-1.1-10-2.9L4 44z"/>
  <path d="M16.5 20.5c.7 1.4 1.9 3.2 3.4 4.7 1.6 1.6 3.4 2.7 4.9 3.4M16.5 20.5l2.1-.9c.5-.2 1-.1 1.3.3l1.4 2.2c.2.3.1.7-.2.9l-1.1.7c.5 1 1.5 2.1 2.4 2.8l.9-1.2c.2-.3.6-.3.9-.2l2.3 1.2c.4.2.5.8.3 1.2l-.9 2.1"/>
</svg>
